# Blender v3.2.2 OBJ File: ''
# www.blender.org
mtllib mussle_rope_part.mtl
o Cylinder
v -0.000000 -3.319833 -1.750236
v -0.000000 3.319833 -1.750236
v 0.341454 -3.319833 -1.716606
v 0.341454 3.319833 -1.716606
v 0.669786 -3.319833 -1.617007
v 0.669786 3.319833 -1.617007
v 0.972379 -3.319833 -1.455268
v 0.972379 3.319833 -1.455268
v 1.237604 -3.319833 -1.237604
v 1.237604 3.319833 -1.237604
v 1.455268 -3.319833 -0.972379
v 1.455268 3.319833 -0.972379
v 1.617007 -3.319833 -0.669787
v 1.617007 3.319833 -0.669787
v 1.716606 -3.319833 -0.341454
v 1.716606 3.319833 -0.341454
v 1.750236 -3.319833 0.000000
v 1.750236 3.319833 0.000000
v 1.716606 -3.319833 0.341454
v 1.716606 3.319833 0.341454
v 1.617008 -3.319833 0.669786
v 1.617008 3.319833 0.669786
v 1.455269 -3.319833 0.972379
v 1.455269 3.319833 0.972379
v 1.237604 -3.319833 1.237604
v 1.237604 3.319833 1.237604
v 0.972379 -3.319833 1.455269
v 0.972379 3.319833 1.455269
v 0.669787 -3.319833 1.617007
v 0.669787 3.319833 1.617007
v 0.341454 -3.319833 1.716606
v 0.341454 3.319833 1.716606
v -0.000000 -3.319833 1.750236
v -0.000000 3.319833 1.750236
v -0.341454 -3.319833 1.716606
v -0.341454 3.319833 1.716606
v -0.669787 -3.319833 1.617007
v -0.669787 3.319833 1.617007
v -0.972379 -3.319833 1.455268
v -0.972379 3.319833 1.455268
v -1.237604 -3.319833 1.237604
v -1.237604 3.319833 1.237604
v -1.455268 -3.319833 0.972380
v -1.455268 3.319833 0.972380
v -1.617007 -3.319833 0.669787
v -1.617007 3.319833 0.669787
v -1.716606 -3.319833 0.341454
v -1.716606 3.319833 0.341454
v -1.750237 -3.319833 -0.000000
v -1.750237 3.319833 -0.000000
v -1.716606 -3.319833 -0.341454
v -1.716606 3.319833 -0.341454
v -1.617007 -3.319833 -0.669787
v -1.617007 3.319833 -0.669787
v -1.455269 -3.319833 -0.972379
v -1.455269 3.319833 -0.972379
v -1.237604 -3.319833 -1.237604
v -1.237604 3.319833 -1.237604
v -0.972379 -3.319833 -1.455268
v -0.972379 3.319833 -1.455268
v -0.669787 -3.319833 -1.617008
v -0.669787 3.319833 -1.617008
v -0.341454 -3.319833 -1.716606
v -0.341454 3.319833 -1.716606
vt 0.422354 0.554363
vt 0.422354 0.970836
vt 0.413780 0.970836
vt 0.413780 0.554363
vt 0.543651 0.004270
vt 0.543651 0.528407
vt 0.535380 0.528407
vt 0.535380 0.004270
vt 0.527110 0.528407
vt 0.527110 0.004270
vt 0.518840 0.528407
vt 0.518840 0.004270
vt 0.510569 0.528407
vt 0.510569 0.004270
vt 0.502299 0.528407
vt 0.502299 0.004270
vt 0.494028 0.528407
vt 0.494028 0.004270
vt 0.485758 0.528407
vt 0.485758 0.004270
vt 0.477488 0.528407
vt 0.477488 0.004270
vt 0.469217 0.528407
vt 0.469217 0.004270
vt 0.460947 0.528407
vt 0.460947 0.004270
vt 0.452677 0.528407
vt 0.452677 0.004270
vt 0.444406 0.528407
vt 0.444406 0.004270
vt 0.436136 0.528407
vt 0.436136 0.004270
vt 0.427866 0.528407
vt 0.427866 0.004270
vt 0.419595 0.528407
vt 0.419595 0.004270
vt 0.411325 0.528407
vt 0.411325 0.004270
vt 0.550544 0.551257
vt 0.550544 0.971842
vt 0.541986 0.971842
vt 0.541986 0.551257
vt 0.533428 0.971842
vt 0.533428 0.551257
vt 0.524870 0.971842
vt 0.524870 0.551257
vt 0.516312 0.971842
vt 0.516312 0.551257
vt 0.507754 0.971842
vt 0.507754 0.551257
vt 0.499196 0.971842
vt 0.499196 0.551257
vt 0.490638 0.971842
vt 0.490638 0.551257
vt 0.482080 0.971842
vt 0.482080 0.551257
vt 0.473522 0.971842
vt 0.473522 0.551257
vt 0.464964 0.971842
vt 0.464964 0.551257
vt 0.456407 0.971842
vt 0.456407 0.551257
vt 0.447849 0.971842
vt 0.447849 0.551257
vt 0.439291 0.971842
vt 0.439291 0.551257
vt 0.765806 0.765140
vt 0.761719 0.765590
vt 0.757631 0.765140
vt 0.753701 0.763808
vt 0.750079 0.761646
vt 0.746904 0.758735
vt 0.744298 0.755189
vt 0.742362 0.751143
vt 0.741170 0.746753
vt 0.740767 0.742188
vt 0.741170 0.737622
vt 0.742362 0.733232
vt 0.744298 0.729186
vt 0.746904 0.725640
vt 0.750079 0.722729
vt 0.753701 0.720567
vt 0.757631 0.719235
vt 0.761719 0.718785
vt 0.765806 0.719235
vt 0.769737 0.720567
vt 0.773359 0.722729
vt 0.776534 0.725640
vt 0.779139 0.729186
vt 0.781076 0.733232
vt 0.782268 0.737622
vt 0.782670 0.742188
vt 0.782268 0.746753
vt 0.781076 0.751143
vt 0.779139 0.755189
vt 0.776534 0.758735
vt 0.773359 0.761646
vt 0.769737 0.763808
vt 0.430733 0.971842
vt 0.430733 0.551257
vt 0.422175 0.971842
vt 0.422175 0.551257
vt 0.750000 0.260435
vt 0.752838 0.260234
vt 0.755566 0.259640
vt 0.758081 0.258676
vt 0.760285 0.257379
vt 0.762094 0.255797
vt 0.763439 0.253993
vt 0.764266 0.252036
vt 0.764546 0.250000
vt 0.764266 0.247964
vt 0.763439 0.246007
vt 0.762094 0.244203
vt 0.760285 0.242621
vt 0.758081 0.241324
vt 0.755566 0.240360
vt 0.752838 0.239766
vt 0.750000 0.239565
vt 0.747162 0.239766
vt 0.744434 0.240360
vt 0.741919 0.241324
vt 0.739715 0.242621
vt 0.737906 0.244203
vt 0.736561 0.246007
vt 0.735734 0.247964
vt 0.735454 0.250000
vt 0.735734 0.252036
vt 0.736561 0.253993
vt 0.737906 0.255797
vt 0.739715 0.257379
vt 0.741919 0.258676
vt 0.744434 0.259640
vt 0.747162 0.260234
vn 0.0980 0.0000 -0.9952
vn 0.2903 0.0000 -0.9569
vn 0.4714 0.0000 -0.8819
vn 0.6344 0.0000 -0.7730
vn 0.7730 0.0000 -0.6344
vn 0.8819 0.0000 -0.4714
vn 0.9569 0.0000 -0.2903
vn 0.9952 0.0000 -0.0980
vn 0.9952 0.0000 0.0980
vn 0.9569 0.0000 0.2903
vn 0.8819 0.0000 0.4714
vn 0.7730 0.0000 0.6344
vn 0.6344 0.0000 0.7730
vn 0.4714 0.0000 0.8819
vn 0.2903 0.0000 0.9569
vn 0.0980 0.0000 0.9952
vn -0.0980 0.0000 0.9952
vn -0.2903 0.0000 0.9569
vn -0.4714 0.0000 0.8819
vn -0.6344 0.0000 0.7730
vn -0.7730 0.0000 0.6344
vn -0.8819 0.0000 0.4714
vn -0.9569 0.0000 0.2903
vn -0.9952 0.0000 0.0980
vn -0.9952 0.0000 -0.0980
vn -0.9569 0.0000 -0.2903
vn -0.8819 0.0000 -0.4714
vn -0.7730 0.0000 -0.6344
vn -0.6344 0.0000 -0.7730
vn -0.4714 0.0000 -0.8819
vn 0.0000 1.0000 -0.0000
vn -0.2903 0.0000 -0.9569
vn -0.0980 0.0000 -0.9952
vn 0.0000 -1.0000 -0.0000
g Cylinder_Cylinder_Material.001
usemtl Material.001
s off
f 1/1/1 2/2/1 4/3/1 3/4/1
f 3/5/2 4/6/2 6/7/2 5/8/2
f 5/8/3 6/7/3 8/9/3 7/10/3
f 7/10/4 8/9/4 10/11/4 9/12/4
f 9/12/5 10/11/5 12/13/5 11/14/5
f 11/14/6 12/13/6 14/15/6 13/16/6
f 13/16/7 14/15/7 16/17/7 15/18/7
f 15/18/8 16/17/8 18/19/8 17/20/8
f 17/20/9 18/19/9 20/21/9 19/22/9
f 19/22/10 20/21/10 22/23/10 21/24/10
f 21/24/11 22/23/11 24/25/11 23/26/11
f 23/26/12 24/25/12 26/27/12 25/28/12
f 25/28/13 26/27/13 28/29/13 27/30/13
f 27/30/14 28/29/14 30/31/14 29/32/14
f 29/32/15 30/31/15 32/33/15 31/34/15
f 31/34/16 32/33/16 34/35/16 33/36/16
f 33/36/17 34/35/17 36/37/17 35/38/17
f 35/39/18 36/40/18 38/41/18 37/42/18
f 37/42/19 38/41/19 40/43/19 39/44/19
f 39/44/20 40/43/20 42/45/20 41/46/20
f 41/46/21 42/45/21 44/47/21 43/48/21
f 43/48/22 44/47/22 46/49/22 45/50/22
f 45/50/23 46/49/23 48/51/23 47/52/23
f 47/52/24 48/51/24 50/53/24 49/54/24
f 49/54/25 50/53/25 52/55/25 51/56/25
f 51/56/26 52/55/26 54/57/26 53/58/26
f 53/58/27 54/57/27 56/59/27 55/60/27
f 55/60/28 56/59/28 58/61/28 57/62/28
f 57/62/29 58/61/29 60/63/29 59/64/29
f 59/64/30 60/63/30 62/65/30 61/66/30
f 4/67/31 2/68/31 64/69/31 62/70/31 60/71/31 58/72/31 56/73/31 54/74/31 52/75/31 50/76/31 48/77/31 46/78/31 44/79/31 42/80/31 40/81/31 38/82/31 36/83/31 34/84/31 32/85/31 30/86/31 28/87/31 26/88/31 24/89/31 22/90/31 20/91/31 18/92/31 16/93/31 14/94/31 12/95/31 10/96/31 8/97/31 6/98/31
f 61/66/32 62/65/32 64/99/32 63/100/32
f 63/100/33 64/99/33 2/101/33 1/102/33
f 1/103/34 3/104/34 5/105/34 7/106/34 9/107/34 11/108/34 13/109/34 15/110/34 17/111/34 19/112/34 21/113/34 23/114/34 25/115/34 27/116/34 29/117/34 31/118/34 33/119/34 35/120/34 37/121/34 39/122/34 41/123/34 43/124/34 45/125/34 47/126/34 49/127/34 51/128/34 53/129/34 55/130/34 57/131/34 59/132/34 61/133/34 63/134/34
